# xmcd CD database file generated by Grip 3.0.3
# 
# Track frame offsets:
#       150
#       10988
#       22519
#       35503
#       49125
#       64819
#       77695
#       91601
#       102774
#       115808
#       129212
#       143475
#       156705
#       172104
#       186519
# 
# Disc length: 2670 seconds
# 
# Revision: 0
# Processed by: cddbd v1.4PL0 Copyright (c) Steve Scherf et al.
# Submitted via: Grip 3.0.3
# 
DISCID=ba0a6c0f
DTITLE=John Lee Hooker - Boom Boom - Disc 3
DYEAR=2002
DGENRE=blues
TTITLE0=Gotta Boogie
TTITLE1=Bady I'm Gonna Miss You
TTITLE2=I Tried Hard
TTITLE3=Hoboin'
TTITLE4=Baby You Ain't No Good
TTITLE5=Down Child
TTITLE6=Taxi Driver
TTITLE7=Jump Me (One More Time)
TTITLE8=Looking For Romance
TTITLE9=Need Somebody
TTITLE10=Looking For A Woman
TTITLE11=Reach My Goal
TTITLE12=I Need Love So Bad
TTITLE13=You Receive Me
TTITLE14=Bad Boy
EXTD=
EXTT0=
EXTT1=
EXTT2=
EXTT3=
EXTT4=
EXTT5=
EXTT6=
EXTT7=
EXTT8=
EXTT9=
EXTT10=
EXTT11=
EXTT12=
EXTT13=
EXTT14=
PLAYORDER=
